<?xml version="1.0"?>
<svg xmlns="http://www.w3.org/2000/svg" version="1.2" baseProfile="tiny" width="800" height="895" viewBox="0 0 800 895" stroke-linecap="round" stroke-linejoin="round">
<g id="lewisham-wards">
<path d="M 263.24 706.47 266.24 725.25 243.57 746.54 248.68 779.4 222.69 795.18 166.19 801.04 165.62 789.13 144.77 788.05 121.79 793.76 83.5 772.02 65.35 775.09 32.28 763.13 9.89 764.41 1 735.02 15.63 697.79 63.5 708.84 94.58 713.01 115.17 705.91 132.3 685.15 153.67 675.84 152.9 719.67 166.32 727.18 199.28 732.12 200.23 721.05 227.51 713.67 245.9 700.05 263.24 706.47 Z"/>
<path d="M 670.22 738.39 640.1 746.84 611.1 771.82 598.65 789.74 585.24 783.84 580.66 802.62 554.87 847.88 542.15 835.3 529.78 845.87 525.57 865.41 507.08 868.74 496.27 881.04 477.37 882.76 469.18 844.44 455.25 814.03 423.78 780.22 451 740.08 484.78 752.3 524.23 747.06 509.12 717.08 507.14 697.65 538.73 684.76 577.78 676.46 595.4 659.93 633.14 641.84 671.56 685.86 666.3 695.78 670.22 738.39 Z"/>
<path d="M 354.06 614.86 381.2 657.85 390.92 680.1 402.52 739.11 410.23 761.81 423.78 780.22 455.25 814.03 469.18 844.44 477.37 882.76 457.69 893.73 431.62 893.25 431.95 877.06 405.1 878.29 385.86 868.77 372.35 851.31 380.29 841.32 382.59 813.06 357.54 788.77 317.01 761.93 305.29 772.73 265.53 770.64 248.68 779.4 243.57 746.54 266.24 725.25 263.24 706.47 262.52 691.71 285.15 683.1 321.98 685.12 338.3 641.79 343.78 593.9 354.06 614.86 Z"/>
<path d="M 282 576.36 288.02 578.1 292.71 630.97 309.09 641.41 338.3 641.79 321.98 685.12 285.15 683.1 262.52 691.71 263.24 706.47 245.9 700.05 227.51 713.67 200.23 721.05 199.28 732.12 166.32 727.18 152.9 719.67 153.67 675.84 150.17 628.21 160.37 582.19 192.81 578.5 244.5 579.86 282 576.36 Z"/>
<path d="M 507.14 697.65 509.12 717.08 524.23 747.06 484.78 752.3 451 740.08 423.78 780.22 410.23 761.81 402.52 739.11 390.92 680.1 381.2 657.85 354.06 614.86 367.97 605.81 381.39 612.14 379.96 563.41 390.26 559.22 450.46 577.79 459.02 544.28 506.97 544.03 509.64 586.19 508.77 627.11 489.21 641.98 507.14 697.65 Z"/>
<path d="M 670.22 738.39 666.3 695.78 671.56 685.86 633.14 641.84 560.22 533.21 616.82 525.79 677.83 500.08 669.92 516.37 666.39 544.28 673.05 560.64 700.9 571.05 726.65 573.28 725.6 603.47 697.61 610.39 704.98 635.36 725.36 630.09 728.52 653.01 736.84 666.48 762.02 681.91 789.51 662.68 788.88 684.75 795.06 711.24 799 760.04 782.34 785.99 704.81 713.88 670.22 738.39 Z"/>
<path d="M 197.4 493.52 200.31 494.59 160.37 582.19 150.17 628.21 153.67 675.84 132.3 685.15 115.17 705.91 94.58 713.01 63.5 708.84 15.63 697.79 45.22 686.72 64.42 667.11 78.08 630.59 74.75 597.94 79.96 538 88.28 519.7 117.38 490.43 142.73 507.52 176.78 491.38 197.4 493.52 Z"/>
<path d="M 445.18 467.62 456.24 466.48 471.61 488.38 478.46 520.86 466.32 524.88 459.02 544.28 450.46 577.79 390.26 559.22 379.96 563.41 381.39 612.14 367.97 605.81 354.06 614.86 343.78 593.9 338.3 641.79 309.09 641.41 292.71 630.97 288.02 578.1 282 576.36 283.36 540.37 297.37 512.55 324.31 505.44 340.76 492.16 369.5 488.74 379.29 466.03 426.14 465.06 445.18 467.62 Z"/>
<path d="M 560.22 533.21 633.14 641.84 595.4 659.93 577.78 676.46 538.73 684.76 507.14 697.65 489.21 641.98 508.77 627.11 509.64 586.19 506.97 544.03 459.02 544.28 466.32 524.88 478.46 520.86 471.61 488.38 456.24 466.48 445.18 467.62 441.75 431.62 454.73 410.58 488.46 435.08 502.79 450.05 560.22 533.21 Z"/>
<path d="M 279.62 394.32 265.98 418.48 297.38 430.45 284.61 446.08 323.31 467.94 340.76 492.16 324.31 505.44 297.37 512.55 283.36 540.37 282 576.36 244.5 579.86 192.81 578.5 160.37 582.19 200.31 494.59 197.4 493.52 227.38 435.35 235.89 417.44 243.5 382.43 279.62 394.32 Z"/>
<path d="M 599 407.06 641.47 423.56 648.26 462.13 659.3 471.32 646.51 486.51 674.24 490.83 677.83 500.08 616.82 525.79 560.22 533.21 502.79 450.05 488.46 435.08 454.73 410.58 461.21 395.54 491.14 385.38 523.77 387.37 559.91 384.88 574.12 391.23 586.86 407.49 599 407.06 Z"/>
<path d="M 454.73 410.58 441.75 431.62 445.18 467.62 426.14 465.06 379.29 466.03 369.5 488.74 340.76 492.16 323.31 467.94 284.61 446.08 297.38 430.45 265.98 418.48 279.62 394.32 277.79 366.49 292.62 361.49 307.71 339.74 335.32 339.48 348.01 348.49 354.81 296.62 375.37 284.78 391.87 310.98 405 362.76 427.36 393.5 454.73 410.58 Z"/>
<path d="M 422.76 273.73 432.66 288.6 444.34 341.4 464.25 353.03 491.14 385.38 461.21 395.54 454.73 410.58 427.36 393.5 405 362.76 391.87 310.98 375.37 284.78 394.27 269.8 409.76 284.13 422.76 273.73 Z"/>
<path d="M 599 407.06 586.86 407.49 574.12 391.23 559.91 384.88 523.77 387.37 491.14 385.38 464.25 353.03 444.34 341.4 432.66 288.6 422.76 273.73 407.52 242.38 420.07 235.04 456.48 229.98 503.27 239.02 618.21 221.93 631.27 261.81 602.54 259.06 607.96 292.26 579.23 303.79 587.19 376.82 599 407.06 Z"/>
<path d="M 353.4 213.7 373.08 228.58 380.55 263.52 394.27 269.8 375.37 284.78 354.81 296.62 348.01 348.49 335.32 339.48 307.71 339.74 292.62 361.49 277.79 366.49 279.62 394.32 243.5 382.43 253.07 326.04 249.59 273.09 230.93 211.89 232.52 211.21 254.24 202.68 286.35 199.64 317.74 243.73 332.88 221.79 353.4 213.7 Z"/>
<path d="M 230.93 211.89 249.59 273.09 253.07 326.04 243.5 382.43 235.89 417.44 227.38 435.35 195.21 414.09 200.38 391.33 200.11 355.19 194.25 335.51 178.23 314.37 161.83 306.92 148.72 277.98 152.72 271.78 144.28 236.4 143.18 179.59 179.48 202.2 190.28 219.09 215.95 217.99 230.93 211.89 Z"/>
<path d="M 326.05 135.38 349 143.42 349.96 155.82 385.93 140.82 377.73 162.71 378.02 182.26 353.4 213.7 332.88 221.79 317.74 243.73 286.35 199.64 254.24 202.68 232.52 211.21 213.03 157.84 207.3 112.93 222.74 126.01 243.98 129.63 279.54 103.99 326.05 135.38 Z"/>
<path d="M 186.27 40.86 201.9 77.79 207.3 112.93 213.03 157.84 232.52 211.21 230.93 211.89 215.95 217.99 190.28 219.09 179.48 202.2 143.18 179.59 131.6 173.14 139.08 145.75 138.48 80.63 148.39 51.24 186.27 40.86 Z"/>
<path d="M 326.05 135.38 279.54 103.99 243.98 129.63 222.74 126.01 207.3 112.93 201.9 77.79 186.27 40.86 209.25 43.08 225.7 30.97 232.74 9.63 246.53 17.44 297.65 1 304.82 22.53 322.5 53.14 345.19 75.71 333.43 95.8 326.05 135.38 Z"/>
</g>
</svg>